<svg width="200" height="200" xmlns="http://www.w3.org/2000/svg" stroke-miterlimit="10" stroke-linecap="square" fill="none" version="1.1">
 <clipPath id="p.0">
  <path id="svg_1" clip-rule="nonzero" d="m0,0l960,0l0,540l-960,0l0,-540z"/>
 </clipPath>

 <g>
  <title>Layer 1</title>
  <path stroke="null" id="svg_4" fill-rule="evenodd" d="m47.13489,83.85748l0,0c15.51616,-41.1126 38.34612,-70.57015 50.99213,-65.79527l0,0c6.07284,2.29297 8.93699,12.3349 7.9624,27.91666c-0.97461,15.58176 -5.70813,35.42699 -13.15924,55.16995l0,0c-15.51616,41.11261 -38.34612,70.57016 -50.99213,65.79529l0,0c-6.07283,-2.29299 -8.93699,-12.3349 -7.96239,-27.91667c0.9746,-15.58176 5.70812,-35.42699 13.15923,-55.16996z" fill-opacity="0" fill="#000000"/>
  <path stroke="#ffffff" id="svg_5" fill-rule="evenodd" d="m47.13489,83.85748l0,0c15.51616,-41.1126 38.34612,-70.57015 50.99213,-65.79527l0,0c6.07284,2.29297 8.93699,12.3349 7.9624,27.91666c-0.97461,15.58176 -5.70813,35.42699 -13.15924,55.16995l0,0c-15.51616,41.11261 -38.34612,70.57016 -50.99213,65.79529l0,0c-6.07283,-2.29299 -8.93699,-12.3349 -7.96239,-27.91667c0.9746,-15.58176 5.70812,-35.42699 13.15923,-55.16996z" stroke-linejoin="round" stroke-width="4"/>
  <path stroke="null" id="svg_6" fill-rule="evenodd" d="m100.43892,24.4339l0,0c32.92836,-2.19174 60.80656,13.8978 62.26772,35.937l0,0c0.70169,10.58361 -4.90699,21.15184 -15.59211,29.37982c-10.68515,8.22796 -25.57153,13.44169 -41.38427,14.4942l0,0c-32.92835,2.19174 -60.80655,-13.8978 -62.26772,-35.937l0,0c-1.46115,-22.03921 24.04804,-41.68228 56.97638,-43.87402z" fill-opacity="0" fill="#000000"/>
  <path stroke="#ffffff" id="svg_7" fill-rule="evenodd" d="m100.43892,24.4339l0,0c32.92836,-2.19174 60.80656,13.8978 62.26772,35.937l0,0c0.70169,10.58361 -4.90699,21.15184 -15.59211,29.37982c-10.68515,8.22796 -25.57153,13.44169 -41.38427,14.4942l0,0c-32.92835,2.19174 -60.80655,-13.8978 -62.26772,-35.937l0,0c-1.46115,-22.03921 24.04804,-41.68228 56.97638,-43.87402z" stroke-linejoin="round" stroke-width="4"/>
  <path stroke="null" id="svg_8" fill-rule="evenodd" d="m107.72804,164.03297l0,-40.37794l42.77165,40.37794l-42.77165,0z" fill-opacity="0" fill="#000000"/>
  <path stroke="#ffffff" id="svg_9" fill-rule="evenodd" d="m107.72804,164.03297l0,-40.37794l42.77165,40.37794l-42.77165,0z" stroke-linejoin="round" stroke-width="4"/>
 </g>
</svg>